<svg width="180" height="100" viewBox="0 0 180 100" fill="none" xmlns="http://www.w3.org/2000/svg">
<path fill-rule="evenodd" clip-rule="evenodd" d="M0 50.0004C0 60.2296 8.5092 68.53 18.9956 68.53C29.4821 68.53 37.9913 60.2296 37.9913 50.0004C37.9913 39.7712 29.4821 31.4707 18.9956 31.4707C8.5092 31.4707 0 39.7712 0 50.0004ZM0.67085 50.0004C0.67085 40.1156 8.89759 32.0907 19.0309 32.0907C29.1643 32.0907 37.391 40.1156 37.391 50.0004C37.391 59.8507 29.1643 67.8756 19.0309 67.8756C8.89759 67.9101 0.67085 59.8851 0.67085 50.0004Z" fill="#5359ED"/>
<path fill-rule="evenodd" clip-rule="evenodd" d="M5.9317 44.9372C10.8042 41.8374 16.171 40.012 25.2804 41.5619C25.7747 41.2864 26.0572 41.0108 26.1984 40.4253C23.9387 39.6332 21.4672 39.3576 18.2895 39.3921C15.4295 39.461 10.2746 40.4942 7.52055 42.0785L8.36794 41.0453C10.3099 39.9431 15.3236 38.4966 19.0662 38.3933C21.7143 38.3588 23.0913 38.4966 26.2337 39.3232C25.9513 38.8066 25.3157 38.531 24.3624 38.1177C21.3259 36.7745 15.6061 36.6712 10.9454 38.6688C11.5457 38.2899 12.1106 37.9455 12.8874 37.6011C14.4409 36.9123 16.9478 36.2579 20.0902 36.2923C22.597 36.3268 25.5982 37.1878 27.4342 38.9443C27.752 39.2887 27.9285 39.6676 27.9991 39.9776C29.4467 40.7009 30.2941 41.3553 30.7531 42.1474C30.9297 42.5607 31.0356 43.0085 30.9297 43.4906C31.5299 43.8351 31.8124 44.145 32.1301 44.5239C32.342 44.8339 32.5185 45.2127 32.5538 45.5571C32.6245 46.0049 32.6598 46.4871 32.2008 47.0726C32.6951 47.3137 33.0835 47.9681 33.1541 48.278C33.3659 49.3457 32.6951 50.379 31.7418 51.2056C30.6825 52.1355 28.3169 53.2032 26.4103 53.6854C22.597 54.6153 19.2428 55.0286 16.5594 55.5108C17.7598 55.7863 19.384 56.1652 22.0674 56.1652C27.752 56.1652 32.7657 53.5476 32.7657 53.5476C32.7657 53.5476 32.6598 53.892 32.5538 54.202C28.9524 56.3374 23.1973 57.2329 20.761 57.1296C18.2542 57.0262 16.171 56.6474 14.1231 56.0274C13.4876 56.1996 12.8874 56.3718 12.2871 56.6474C15.3942 58.0251 17.7598 58.335 20.4432 58.5417C23.1619 58.7483 27.646 58.0939 31.4593 56.7507C31.2828 56.9229 31.2121 57.1985 31.0356 57.3362C29.0937 58.335 24.9626 59.3338 22.9148 59.4027C20.8669 59.4716 18.3601 59.4027 16.171 59.0239C14.2997 58.6794 12.7461 58.0939 11.1573 57.4051C10.8748 57.6118 10.7336 57.8873 10.663 58.1973C16.7712 61.3659 22.6323 61.4348 29.3055 59.4027L28.7053 59.9882C21.3612 62.8813 15.6414 61.7448 11.1926 59.6783C11.0513 59.6094 10.8748 59.5405 10.7336 59.4716C11.1573 60.1604 14.5468 62.5714 18.3248 62.8813C20.9376 63.088 24.1153 62.6402 26.0219 61.917L24.892 62.468C23.974 62.9158 21.5378 63.9146 18.1482 63.6735C13.6288 63.3635 11.0867 61.4348 9.92149 60.4015C9.39187 59.9193 9.14472 59.3683 8.96818 58.6794C7.94425 58.1628 7.30871 57.6117 6.77909 56.8196C6.46132 56.3374 6.53193 55.8208 6.60255 55.373L6.70847 54.9597C6.21416 54.6153 5.71985 54.2365 5.50801 53.8576C5.049 53.0654 5.33147 52.411 5.64924 51.86C5.36677 51.55 5.11962 51.2745 5.0137 50.9645C4.90777 50.5856 4.87246 50.2412 4.90777 49.8624C4.97839 49.208 5.36677 48.588 5.82578 48.0714C6.8144 46.9693 8.36794 46.1082 11.0513 45.2472C13.6641 44.4206 14.6881 44.2828 16.6653 43.8351C18.9603 43.3184 21.7143 43.1462 24.0093 42.3541C17.6186 41.2519 10.9454 42.2507 5.54331 45.9016L5.9317 44.9372ZM27.7167 41.0797C27.646 41.3897 27.293 41.7341 27.0811 41.9752C27.7873 42.1474 28.4934 42.3885 29.1643 42.664C29.0584 42.0441 28.3522 41.4586 27.7167 41.0797ZM8.01487 53.5476C7.59117 53.3065 7.30871 53.1688 6.99094 52.9277C6.8144 53.3065 7.16748 53.7543 7.52055 53.9609C7.66179 53.8232 7.83833 53.6854 8.01487 53.5476ZM29.588 45.3849C30.047 45.5916 30.4707 45.7638 30.8591 46.0393C31.1415 45.4883 30.965 45.1438 30.3648 44.6617C30.1529 44.9372 29.8704 45.1783 29.588 45.3849ZM28.211 46.2115C27.293 46.6248 25.916 47.0726 24.0093 47.5548C22.4558 47.9336 18.6072 48.4847 14.4762 49.3457C13.1698 49.6213 9.63903 50.4479 7.90894 51.86C8.40325 52.2388 8.68572 52.3422 9.25064 52.6177C9.9568 52.17 10.9454 51.7567 12.393 51.3778C14.9352 50.7234 16.8065 50.4479 19.1015 50.069C21.3612 49.7246 25.5982 48.8636 27.9638 48.0369C28.7406 47.7614 29.4467 47.417 29.9764 47.0037C29.7998 46.8659 28.2816 46.1427 28.211 46.2115ZM10.4158 55.8208C10.7689 55.6141 11.1926 55.4075 11.6516 55.2353C10.9807 54.9597 10.3099 54.6842 9.63903 54.3742C9.32126 54.5464 9.03879 54.7531 8.82695 54.9597C9.35656 55.2353 9.85088 55.5452 10.4158 55.8208ZM8.22671 56.0274C8.22671 56.4407 8.47387 56.8196 9.03879 57.2673C9.10941 57.0262 9.21533 56.8885 9.39187 56.6818C8.96818 56.4752 8.6151 56.2341 8.22671 56.0274ZM11.4397 48.3814C16.0651 47.0726 20.9376 46.6593 25.8807 45.3849C23.9387 44.8683 22.9148 44.6617 20.8669 44.9028C17.9011 45.2472 14.6527 45.8671 11.8634 46.6593C10.7689 46.9693 5.0137 48.5536 6.67317 50.7923C6.67317 50.8267 7.66179 49.4835 11.4397 48.3814ZM28.8112 43.7662C28.0697 43.4218 27.1164 43.1118 26.0925 42.8362C25.6335 43.1807 25.1392 43.4906 24.3624 43.7662C25.5982 43.9728 26.5515 44.3172 27.6107 44.6272C27.8226 44.7305 28.67 43.9384 28.8112 43.7662ZM31.1062 48.1058C30.965 48.2092 30.8238 48.3469 30.6472 48.4502C29.588 49.2424 27.9285 49.8624 25.6335 50.4823C20.8669 51.7222 17.4068 51.9289 13.4523 52.8588C12.6755 53.031 11.8987 53.3065 11.1573 53.5821C11.8987 53.9609 12.6755 54.2709 13.4876 54.5809C15.0764 54.1331 15.8532 53.9265 18.1835 53.5476C19.0662 53.4099 21.7849 52.9277 23.7622 52.5144C27.293 51.8255 32.4832 50.2068 31.1062 48.1058Z" fill="#5B53F9"/>
<path fill-rule="evenodd" clip-rule="evenodd" d="M56.1748 58.0599H60.094L60.553 55.2702H63.2364L63.6954 58.0599H67.6146L64.2956 41.8379H59.4231L56.1748 58.0599ZM61.93 46.7286L62.6715 51.6882H61.2238L61.93 46.7286Z" fill="#5B53F9"/>
<path fill-rule="evenodd" clip-rule="evenodd" d="M71.3574 48.1409C71.993 48.1409 73.1228 47.762 73.1228 46.5566C73.1228 45.1444 71.7811 45.0411 71.4281 45.0411C70.9691 45.0411 70.157 45.11 69.3096 45.4889L69.2743 41.9758C70.5807 41.6658 71.534 41.5625 72.6285 41.5625C75.7709 41.5625 77.2186 43.7323 77.2186 45.8333C77.2186 47.8998 75.9828 49.1397 74.8176 49.6219V49.7941C75.9475 50.1385 77.4657 51.2062 77.4657 53.686C77.4657 56.7513 75.2766 58.439 72.4873 58.439C70.9691 58.439 70.0157 58.2323 68.8506 57.6123L68.9212 54.2371C70.0157 54.6848 70.7572 54.7192 71.4987 54.7192C72.7345 54.7192 73.2288 53.8238 73.2288 53.1694C73.2288 52.2739 72.6285 51.6539 71.3221 51.6539H69.7333V48.1409H71.3574Z" fill="#5B53F9"/>
<path fill-rule="evenodd" clip-rule="evenodd" d="M89.8227 58.0599H85.9388V45.7298H83.1495V58.0599H79.2656V41.8379H89.8227V58.0599Z" fill="#5B53F9"/>
<path fill-rule="evenodd" clip-rule="evenodd" d="M92.0127 58.0599H95.8613V52.7215H97.1676C100.981 52.7215 102.181 49.3806 102.181 47.2452C102.181 45.1443 100.84 41.8379 97.1676 41.8379H92.0127V58.0599ZM95.8613 45.4198H96.7793C97.662 45.4198 98.1916 45.9365 98.1916 47.2797C98.1916 49.0362 97.2736 49.1395 96.7793 49.1395H95.8613V45.4198Z" fill="#5B53F9"/>
<path fill-rule="evenodd" clip-rule="evenodd" d="M109.313 58.2675C113.903 58.2675 115.422 54.1 115.422 49.9326C115.422 45.7651 113.868 41.5977 109.313 41.5977C104.723 41.5977 103.205 45.7651 103.205 49.9326C103.205 54.1 104.759 58.2675 109.313 58.2675ZM109.313 54.3411C107.972 54.3411 107.265 52.7912 107.265 49.9326C107.265 47.0739 107.972 45.524 109.313 45.524C110.69 45.524 111.361 47.0739 111.361 49.9326C111.397 52.7912 110.69 54.3411 109.313 54.3411Z" fill="#5B53F9"/>
<path fill-rule="evenodd" clip-rule="evenodd" d="M132.229 58.0599H136.854C137.842 58.0599 142.009 57.6466 142.044 52.7559C142.044 48.6229 138.796 47.8996 136.713 47.8996H136.042V45.7642H141.161V41.8379H132.264V58.0599H132.229ZM136.042 54.8224V51.1372H136.607C137.066 51.1372 138.266 51.1716 138.266 52.8248C138.266 54.5469 137.03 54.8224 136.607 54.8224H136.042Z" fill="#5B53F9"/>
<path fill-rule="evenodd" clip-rule="evenodd" d="M166.159 58.0599H162.417V51.5849H159.698V58.0599H155.92V41.8379H159.698V47.693H162.417V41.8379H166.159V58.0599Z" fill="#5B53F9"/>
<path fill-rule="evenodd" clip-rule="evenodd" d="M179.576 41.8379L176.61 49.5528L180 58.0599H175.551L173.397 51.5505H172.479V58.0599H168.701V41.8379H172.479V47.693H173.291L175.48 41.8379H179.576Z" fill="#5B53F9"/>
<path fill-rule="evenodd" clip-rule="evenodd" d="M48.7246 41.8379H56.6336V45.902H52.6438V58.0599H48.7246V41.8379Z" fill="#5B53F9"/>
<path fill-rule="evenodd" clip-rule="evenodd" d="M125.802 58.0599V48.1752L123.472 50.9994L121.142 48.1752V58.0599H117.293V41.8379H120.577L123.472 45.6609L126.367 41.8379H129.651V58.0599H125.802Z" fill="#5B53F9"/>
<path fill-rule="evenodd" clip-rule="evenodd" d="M142.785 58.0951H146.704L147.163 55.3053H149.847L150.341 58.0951H154.26L150.941 41.873H146.069L142.785 58.0951ZM148.54 46.7638L149.282 51.7234H147.834L148.54 46.7638Z" fill="#5B53F9"/>
</svg>
