<svg width="180" height="100" viewBox="0 0 180 100" fill="none" xmlns="http://www.w3.org/2000/svg">
<path d="M70.37 28.0429C68.7278 28.183 67.514 28.7636 66.2901 29.9748C64.7499 31.5064 64.1073 33.3482 64.4031 35.4403C64.8315 38.4834 67.1979 40.7357 70.2986 41.026C71.8898 41.1761 73.6135 40.8558 74.7457 40.2051C77.8057 38.4434 78.9277 34.6996 77.3467 31.5364C76.5103 29.8847 74.7865 28.5734 72.9506 28.193C71.9816 27.9928 71.3696 27.9628 70.37 28.0429ZM72.8996 30.9158C73.7359 31.3162 74.5009 32.117 74.8171 32.9178C75.1537 33.7386 75.1537 35.3402 74.8171 36.1711C74.5111 36.9318 73.6441 37.8528 72.8894 38.2131C72.3692 38.4634 72.206 38.4934 71.237 38.4934C70.2578 38.4934 70.115 38.4634 69.554 38.2031C67.9934 37.4524 67.1367 35.8708 67.2998 34.089C67.4222 32.7876 68.2586 31.5064 69.35 30.9558C70.0742 30.5954 70.3598 30.5454 71.3492 30.5654C72.104 30.5954 72.3284 30.6455 72.8996 30.9158Z" fill="#0054AF"/>
<path d="M51.8574 34.4893V40.8457H53.2344H54.6114V38.2931V35.7405H57.2633H59.9153V38.2931V40.8457H61.3433H62.7712V34.4893V28.1329H61.3433H59.9153V30.6854V33.238H57.2633H54.6114V30.6854V28.1329H53.2344H51.8574V34.4893Z" fill="#0054AF"/>
<path d="M79.8047 34.501V40.8574L83.7112 40.8174C86.914 40.7874 87.6892 40.7573 88.0768 40.6272C89.8107 40.0366 90.6063 39.1357 90.6981 37.6342C90.7899 36.1527 90.1983 35.1316 88.9131 34.531C88.6173 34.4009 88.3827 34.2708 88.3827 34.2407C88.3827 34.2107 88.5663 34.0706 88.7907 33.9104C89.2497 33.6001 89.7495 32.8794 89.9127 32.2888C90.0861 31.6781 89.9739 30.6671 89.6679 30.0865C89.3211 29.4059 88.6377 28.8153 87.9034 28.535C87.067 28.2247 85.9042 28.1446 82.6402 28.1346H79.8047V34.501ZM86.5468 30.8673C87.3322 31.2777 87.475 32.2587 86.8324 32.8493C86.404 33.2497 85.7206 33.3598 83.9866 33.3198L82.5076 33.2898L82.477 31.9584L82.4464 30.6371H84.2722C85.9858 30.6371 86.1286 30.6471 86.5468 30.8673ZM87.118 35.8424C88.1787 36.3128 88.2399 37.6742 87.22 38.2148C86.9446 38.3649 86.5672 38.3949 84.6802 38.425L82.4566 38.455V37.0536V35.6422H84.5782C86.4346 35.6422 86.7406 35.6722 87.118 35.8424Z" fill="#0054AF"/>
<path d="M110.436 28.233C109.1 28.4732 107.906 29.194 107.243 30.1549C106.641 31.0458 106.499 31.5764 106.55 32.7676C106.58 33.6184 106.641 33.8887 106.876 34.4092C107.335 35.4002 108.324 36.181 109.538 36.4913C110.64 36.7716 112.404 36.6715 113.169 36.2811C113.536 36.101 113.547 36.2011 113.22 36.8918C112.476 38.4733 110.721 38.6435 108.702 37.3422L108.386 37.132L108.131 37.4623C107.498 38.3032 106.733 39.3843 106.733 39.4543C106.733 39.4944 107.08 39.7446 107.498 39.9949C109.875 41.4564 112.965 41.3463 114.811 39.7546C115.658 39.0239 116.382 37.6825 116.678 36.2911C116.882 35.3602 116.882 33.168 116.678 32.217C116.27 30.3051 115.168 28.9938 113.485 28.4432C112.771 28.203 111.211 28.1029 110.436 28.233ZM112.496 28.6334C114.475 28.9137 115.821 30.225 116.27 32.2871C116.423 33.0078 116.484 35.15 116.362 35.8207C116.137 37.132 115.566 38.3432 114.791 39.1741C113.485 40.5755 111.109 41.0159 108.987 40.2551C107.988 39.8948 107.304 39.4844 107.386 39.2842C107.457 39.094 108.355 37.8627 108.457 37.7927C108.508 37.7726 108.834 37.9028 109.191 38.093C111.068 39.0639 112.822 38.6936 113.567 37.182C113.771 36.7716 114.128 35.3502 114.046 35.2701C114.016 35.2501 113.873 35.3402 113.71 35.4703C112.894 36.141 111.721 36.4213 110.446 36.2411C109.283 36.0909 108.62 35.7906 107.947 35.15C107.141 34.3692 106.907 33.7286 106.958 32.4372C106.998 31.2761 107.274 30.6154 108.029 29.8747C109.1 28.8236 110.681 28.3832 112.496 28.6334Z" fill="#0054AF"/>
<path d="M111.149 30.9472C110.476 31.0673 110.139 31.2875 109.895 31.788C109.507 32.5788 109.742 33.3396 110.517 33.79C110.792 33.9502 111.047 33.9902 111.7 33.9902C112.628 33.9902 112.904 33.8601 113.342 33.2395C113.771 32.6088 113.546 31.5978 112.873 31.2074C112.475 30.9772 111.69 30.8571 111.149 30.9472ZM112.179 31.3476C112.751 31.5077 113.159 31.9282 113.159 32.3886C113.159 33.2595 112.557 33.6899 111.445 33.6199C110.843 33.5798 110.762 33.5498 110.445 33.2094C110.058 32.799 109.997 32.4186 110.241 31.9482C110.558 31.3576 111.333 31.1173 112.179 31.3476Z" fill="#0054AF"/>
<path d="M92.249 34.5393V40.8457H93.6056H94.9724L97.7671 36.7315L100.562 32.6074L100.592 36.7315L100.613 40.8457H101.99H103.367V34.5393V28.233H102.061H100.766L97.9609 32.3471L95.156 36.4513L95.1254 32.3471L95.105 28.233H93.677H92.249V34.5393Z" fill="#0054AF"/>
<path d="M118.972 29.636V30.9373L121.43 30.9574L123.889 30.9874L122.42 32.1886L120.961 33.3898L120.931 34.4509L120.9 35.512L122.257 35.572C123.807 35.6321 124.297 35.7422 124.705 36.1426C125.204 36.6331 125.031 37.6641 124.399 37.9745C123.45 38.4549 122.032 38.1446 120.982 37.2437C120.727 37.0235 120.492 36.8433 120.461 36.8433C120.421 36.8433 119.89 37.2537 119.268 37.7642L118.156 38.6852L118.483 39.0255C119.319 39.8764 120.533 40.537 121.777 40.8073C122.532 40.9675 124.082 40.9875 124.807 40.8373C127.163 40.3469 128.601 38.1246 128.009 35.8723C127.693 34.6411 126.969 33.9304 125.602 33.4999C125.184 33.3698 124.858 33.2196 124.888 33.1696C124.909 33.1296 125.612 32.529 126.439 31.8483L127.948 30.607V29.4659V28.3347H123.46H118.972V29.636ZM127.54 29.566V30.4068L125.663 31.9484C124.623 32.7892 123.787 33.4999 123.807 33.5099C123.817 33.52 124.133 33.58 124.511 33.6401C125.633 33.8102 126.296 34.1105 126.898 34.6911C127.56 35.3518 127.795 36.0225 127.724 37.0936C127.581 39.2357 125.929 40.5471 123.368 40.5471C121.645 40.5471 120.278 40.0866 119.258 39.1456L118.758 38.6952L119.594 38.0245L120.421 37.3638L120.89 37.7042C121.492 38.1646 121.798 38.3148 122.512 38.495C124.082 38.9054 125.398 38.1747 125.398 36.9034C125.398 36.1826 125.123 35.7922 124.409 35.4719C123.909 35.2517 123.644 35.2017 122.573 35.1616L121.308 35.1116L121.339 34.3508L121.369 33.59L123.205 32.0885L125.031 30.587L122.206 30.557L119.38 30.5369V29.636V28.7351H123.46H127.54V29.566Z" fill="#0054AF"/>
<path d="M69.1263 43.5591C67.5045 43.7093 66.1582 44.3399 65.026 45.461C63.7714 46.6923 63.2002 47.9736 63.1084 49.7053C63.0064 51.6773 63.6286 53.309 65.0056 54.6603C66.3418 55.9717 67.8717 56.5723 69.9117 56.5723C71.9925 56.5723 73.4306 56.0117 74.8178 54.6603C75.542 53.9596 75.7766 53.6493 76.1132 52.9586C76.6436 51.8675 76.7762 51.2369 76.7762 50.0056C76.766 48.8445 76.5722 48.0036 76.0826 47.0627C74.8076 44.5902 72.1863 43.2588 69.1263 43.5591ZM71.5539 46.372C71.8701 46.5121 72.3393 46.8524 72.6453 47.1528C74.6342 49.1348 74.0834 52.5582 71.5641 53.7794C71.1561 53.9796 70.9317 54.0097 70.0137 54.0097C69.0651 54.0097 68.8713 53.9796 68.3613 53.7394C67.5453 53.369 66.811 52.6683 66.4132 51.8675C66.1072 51.2469 66.0868 51.1568 66.0868 50.0557C66.0868 49.0146 66.1174 48.8445 66.3622 48.3339C66.8722 47.2529 67.6779 46.5221 68.7183 46.1918C69.4119 45.9716 70.8501 46.0616 71.5539 46.372Z" fill="#0054AF"/>
<path d="M51.8574 50.055V56.3613H53.2344H54.6114V54.4394V52.5074L55.3458 51.7867C55.7538 51.3863 56.1108 51.056 56.1515 51.056C56.1821 51.056 57.1001 52.2472 58.1915 53.7086L60.1601 56.3613H61.8227C62.7406 56.3613 63.4852 56.3413 63.4852 56.3213C63.4852 56.3013 62.2714 54.6696 60.7823 52.6976C58.4363 49.5845 58.0997 49.094 58.2119 48.9338C58.2731 48.8437 59.4563 47.6325 60.8231 46.2611L63.3016 43.7486H61.5881L59.8643 43.7586L57.2633 46.5114L54.6624 49.2742L54.6318 46.5114L54.6114 43.7486H53.2344H51.8574V50.055Z" fill="#0054AF"/>
<path d="M78.377 50.055V56.3613H79.7539H81.1309L81.1513 52.2372L81.1819 48.113L82.9669 50.7857C83.9461 52.2572 84.7824 53.4584 84.8334 53.4584C84.8742 53.4584 85.7208 52.2572 86.7204 50.7757L88.5258 48.103L88.5564 52.2272L88.5768 56.3613H89.9538H91.3307V50.055V43.7386L89.7804 43.7686L88.23 43.7986L86.6184 46.3512C85.731 47.7526 84.966 48.9338 84.915 48.9839C84.8742 49.0239 84.0787 47.8627 83.1607 46.4013L81.4879 43.7486H79.9375H78.377V50.055Z" fill="#0054AF"/>
<path d="M66.1571 64.8911C64.7903 68.0443 63.5459 70.9272 63.3827 71.3076L63.0869 71.9883L64.5251 71.9583L65.9735 71.9282L66.5549 70.5268L67.1464 69.1254L69.8902 69.0954L72.6442 69.0753L72.9909 69.8962C73.1847 70.3566 73.4601 71.0073 73.5927 71.3476L73.8375 71.9783H75.2961C76.6425 71.9783 76.7547 71.9683 76.7037 71.7981C76.6731 71.708 75.4287 68.8351 73.9497 65.4216L71.257 59.2154L69.9412 59.1853L68.6356 59.1653L66.1571 64.8911ZM70.798 64.6008L71.6242 66.6229L69.9412 66.6529C69.013 66.6629 68.2378 66.6629 68.2174 66.6429C68.1664 66.5928 69.8392 62.5688 69.9106 62.5688C69.9412 62.5688 70.339 63.4797 70.798 64.6008Z" fill="#0054AF"/>
<path d="M110.507 59.2662C109.222 59.4664 108.406 59.9268 107.345 61.038C106.958 61.4484 106.631 61.8287 106.631 61.8688C106.631 61.9188 107.121 62.3393 107.733 62.7997L108.824 63.6506L109.436 63.02C110.171 62.2692 110.732 61.9689 111.384 61.9689C112.537 61.9689 113.159 62.7697 112.853 63.8808C112.68 64.5015 111.609 65.5025 108.804 67.6747L106.529 69.4264V70.6477V71.8789H111.425H116.321V70.5275V69.1762L113.771 69.1562L111.221 69.1261L112.67 68.055C114.455 66.7537 115.301 65.9129 115.719 65.032C116.597 63.1901 116.117 61.058 114.597 60.0269C113.639 59.3663 111.894 59.0459 110.507 59.2662ZM112.476 59.6666C114.24 59.9168 115.464 61.0179 115.719 62.5695C115.923 63.8308 115.454 65.092 114.373 66.1531C114.036 66.4835 112.925 67.3744 111.884 68.1351L109.997 69.5265L112.955 69.5566L115.913 69.5766V70.5275V71.4785H111.425H106.937V70.5476V69.6266L109.446 67.6747C112.221 65.5125 112.965 64.8118 113.22 64.051C113.69 62.6596 112.71 61.4584 111.221 61.5985C110.477 61.6586 110.079 61.8688 109.375 62.5395L108.794 63.09L108.018 62.5094C107.59 62.1791 107.243 61.8688 107.243 61.8087C107.243 61.6085 108.712 60.3072 109.202 60.077C109.742 59.8267 110.783 59.5865 111.374 59.5765C111.599 59.5765 112.098 59.6165 112.476 59.6666Z" fill="#0054AF"/>
<path d="M51.8574 65.6316V71.998L55.509 71.958C58.8443 71.918 59.2013 71.8979 59.7827 71.7078C61.1903 71.2473 61.9859 70.5366 62.3632 69.3754C62.6896 68.3844 62.6284 66.973 62.2306 66.1622C61.7717 65.2312 60.8537 64.5305 59.6603 64.2002C59.3339 64.1101 58.3445 64.04 56.8859 64L54.6114 63.9399V62.8588V61.7677H58.1813H61.7513V60.5164V59.2652H56.8043H51.8574V65.6316ZM58.9361 66.5225C59.5481 66.8228 59.7623 67.1732 59.7623 67.8739C59.7623 68.5846 59.5481 68.9249 58.8953 69.2453C58.4771 69.4555 58.3139 69.4755 56.5289 69.4755H54.6114V67.944C54.6114 67.0931 54.642 66.3724 54.693 66.3323C54.7338 66.2923 55.611 66.2723 56.6513 66.2923C58.2935 66.3223 58.5893 66.3523 58.9361 66.5225Z" fill="#0054AF"/>
<path d="M78.377 65.6221V71.9785H79.8049H81.2329V69.4259V66.8734H83.8849H86.5368V69.4259V71.9785H87.9138H89.2908V65.6221V59.2657H87.9138H86.5368V61.7682V64.2707H83.8849H81.2329V61.7682V59.2657H79.8049H78.377V65.6221Z" fill="#0054AF"/>
<path d="M91.6367 65.6221V71.9785H93.0647H94.4927V69.9965V68.0145L95.2577 67.2738C95.6759 66.8633 96.0328 66.553 96.0532 66.5831C96.0736 66.6031 96.9712 67.8243 98.0626 69.2958L100.041 71.9785H101.704C103.02 71.9785 103.367 71.9485 103.305 71.8484C103.265 71.7883 102.061 70.1767 100.633 68.2848C99.2152 66.3929 98.0218 64.7913 97.9912 64.7212C97.9708 64.6411 99.0112 63.4999 100.5 61.9784C101.908 60.547 103.061 59.3457 103.061 59.3157C103.061 59.2857 102.316 59.2657 101.398 59.2657H99.7456L97.1446 62.0285L94.5437 64.7913L94.5131 62.0285L94.4927 59.2657H93.0647H91.6367V65.6221Z" fill="#0054AF"/>
<path d="M118.871 60.6159V61.9673L121.288 61.9873L123.706 62.0173L122.257 63.2085L120.799 64.3897L120.829 65.4608L120.86 66.5219L122.339 66.5719C123.655 66.622 123.869 66.652 124.236 66.8622C124.726 67.1325 124.889 67.4128 124.889 67.9734C124.889 68.2336 124.807 68.4538 124.634 68.654C124.267 69.0845 123.879 69.2046 123.053 69.1545C122.227 69.0945 121.472 68.7742 120.788 68.1736L120.329 67.7832L119.473 68.4939C119.003 68.8843 118.483 69.3147 118.31 69.4548L118.004 69.7051L118.667 70.2857C121.054 72.3978 125.103 72.538 126.97 70.576C127.653 69.8553 127.959 69.1445 128.02 68.1335C128.112 66.7621 127.653 65.651 126.745 65.0304C126.256 64.7 125.236 64.2796 124.919 64.2696C124.787 64.2696 124.685 64.2396 124.695 64.1895C124.695 64.1495 125.399 63.5589 126.266 62.8682L127.837 61.6169V60.4357L127.847 59.2646H123.359H118.871V60.6159ZM127.439 60.5358V61.4167L125.531 62.9683L123.624 64.5199L124.185 64.5799C124.991 64.67 126.031 65.0304 126.541 65.4108C126.786 65.601 127.123 65.9913 127.286 66.2816C127.561 66.7721 127.592 66.9023 127.592 67.7731C127.592 68.9944 127.388 69.5249 126.653 70.2857C125.725 71.2467 124.45 71.6471 122.737 71.537C121.278 71.4469 119.85 70.8763 118.993 70.0354L118.657 69.7151L119.483 69.0344C120.278 68.3738 120.309 68.3537 120.533 68.5139C121.676 69.3447 122.298 69.575 123.349 69.575C124.542 69.575 125.297 68.9343 125.297 67.9233C125.297 67.2426 125.001 66.8022 124.328 66.4718C123.889 66.2616 123.634 66.2216 122.543 66.1715L121.268 66.1215L121.237 65.3707L121.207 64.62L123.053 63.1184L124.899 61.6169L122.084 61.5869L119.279 61.5669V60.6159V59.665H123.359H127.439V60.5358Z" fill="#0054AF"/>
<path d="M123.446 44.5964L121.894 43.0527L108.122 54.8235L109.48 56.3672L123.446 44.5964Z" fill="url(#paint0_linear_3218_393)"/>
<defs>
<linearGradient id="paint0_linear_3218_393" x1="109.092" y1="48.8416" x2="123.25" y2="47.282" gradientUnits="userSpaceOnUse">
<stop offset="0.182292" stop-color="#005DB2"/>
<stop offset="1" stop-color="#D9D9D9" stop-opacity="0"/>
</linearGradient>
</defs>
</svg>
