<svg width="180" height="100" viewBox="0 0 180 100" fill="none" xmlns="http://www.w3.org/2000/svg">
<g clip-path="url(#clip0_3218_417)">
<path d="M70.9736 59.5798V40.3906H81.0684C84.7205 40.3906 86.5904 42.7206 86.5904 45.2827C86.5904 47.7004 85.0944 49.3105 83.2839 49.6846C85.3266 50.002 86.9643 51.9862 86.9643 54.4038C86.9643 57.2808 85.0377 59.5824 81.3856 59.5824H70.9736V59.5798ZM82.4199 46C82.4199 44.7925 81.5559 43.8997 80.176 43.8997H75.0564V48.072H80.176C81.5559 48.072 82.4199 47.2076 82.4199 46ZM82.7938 53.8259C82.7938 52.6183 81.9298 51.5811 80.3205 51.5811H75.0564V56.0423H80.3205C81.8731 56.0423 82.7938 55.2089 82.7938 53.8259Z" fill="#2A2C36"/>
<path d="M103.989 40.3906V43.9875H94.0668V47.383H99.042C103.125 47.383 105.397 50.1749 105.397 53.4827C105.397 56.7906 103.153 59.5824 99.042 59.5824H89.9814V40.3906H103.989ZM94.0668 50.9799V55.9855H98.4952C100.076 55.9855 101.227 55.0076 101.227 53.4827C101.227 51.9578 100.076 50.9799 98.4952 50.9799H94.0668Z" fill="#2A2C36"/>
<path d="M107.959 59.5798V40.3906H116.932C121.102 40.3906 123.375 43.2108 123.375 46.5754C123.375 49.9401 121.074 52.7602 116.932 52.7602H112.042V59.5798H107.959ZM119.204 46.5754C119.204 44.9654 117.997 43.9849 116.385 43.9849H112.042V49.1634H116.385C117.994 49.1634 119.204 48.1571 119.204 46.5729V46.5754Z" fill="#2A2C36"/>
<path d="M125.584 59.5798V40.3906H134.557C138.727 40.3906 141 43.2108 141 46.5754C141 49.9401 138.699 52.7602 134.557 52.7602H129.667V59.5798H125.584ZM136.829 46.5754C136.829 44.9654 135.622 43.9849 134.01 43.9849H129.667V49.1634H134.01C135.622 49.1634 136.829 48.1571 136.829 46.5729V46.5754Z" fill="#2A2C36"/>
<path d="M140.987 63.8652H43.7969V65.9991H140.987V63.8652Z" fill="#FFCF00"/>
<path d="M49.9852 49.0382L43.5977 49.373L44.1334 59.5999L50.5209 59.265L49.9852 49.0382Z" fill="#2B2E36"/>
<path d="M52.5109 50.7663L50.8555 56.9473L60.7433 59.5978L62.3988 53.4169L52.5109 50.7663Z" fill="#2B2E36"/>
<path d="M60.5035 40.2943L54.9297 48.8809L60.2941 52.366L65.8679 43.7794L60.5035 40.2943Z" fill="#2B2E36"/>
<path d="M52.4376 34.0003L47.4668 38.0273L53.9073 45.984L58.8781 41.957L52.4376 34.0003Z" fill="#2B2E36"/>
<path d="M48.5543 40.1082L39 43.7773L41.2922 49.7513L50.8465 46.0822L48.5543 40.1082Z" fill="#2B2E36"/>
</g>
<defs>
<clipPath id="clip0_3218_417">
<rect width="102" height="32" fill="white" transform="translate(39 34)"/>
</clipPath>
</defs>
</svg>
