<svg width="180" height="100" viewBox="0 0 180 100" fill="none" xmlns="http://www.w3.org/2000/svg">
<g clip-path="url(#clip0_3218_414)">
<path d="M82.4751 50.0816C82.4751 55.6532 78.9577 58.2863 74.5582 58.2863H71.8685V54.9423H74.3459C76.9976 54.9423 78.7672 53.5573 78.7672 50.0816C78.7672 46.606 77.0956 44.9156 74.2642 44.9156C71.4329 44.9156 69.5925 46.5375 69.5925 50.0132V63.9947H65.9281V42.0139H69.5925V43.9045H70.1152C71.3349 42.3194 73.1426 41.6084 75.0319 41.6084C79.083 41.6084 82.4642 44.4469 82.4642 50.0869L82.4751 50.0816ZM58.376 48.6282L55.9312 48.3912C54.0092 48.2227 52.9964 47.7171 52.9964 46.6376C52.9964 45.3526 54.2869 44.6101 56.1381 44.6101C57.9894 44.6101 59.2798 45.4896 59.3833 46.7376H62.9116C62.77 43.5622 60.2218 41.6032 56.1708 41.6032C52.1198 41.6032 49.3265 43.6991 49.3265 46.7692C49.3265 49.3338 51.0036 50.9927 54.8096 51.3613L57.287 51.5983C58.7898 51.7352 59.8025 52.0354 59.8025 53.4204C59.8025 54.6684 58.8606 55.5795 56.3831 55.5795C54.1017 55.5795 52.9746 54.5789 52.5826 53.236H48.7657C49.1469 56.3062 51.8149 58.6865 56.3831 58.6865C60.6792 58.6865 63.4724 56.4905 63.4724 53.2466C63.4724 50.3765 61.5177 48.9231 58.376 48.6176V48.6282ZM96.6754 53.2413C96.0983 54.521 94.7262 55.4847 92.7769 55.4847C90.0871 55.4847 88.0997 53.7942 88.0997 50.1501C88.0997 46.5059 89.951 44.747 92.815 44.747C95.3632 44.747 96.8334 46.2321 96.9695 48.4597H90.3702V51.0243H100.569V49.3338C100.569 44.6417 97.3561 41.5979 92.7823 41.5979C88.5244 41.5979 84.4353 44.3995 84.4353 50.1448C84.4353 55.8902 88.519 58.6917 92.7823 58.6917C96.6809 58.6917 99.4578 56.3694 100.318 53.2413H96.6809H96.6754ZM38.8778 41.6084C34.8594 41.6084 31.8593 43.6359 31.5108 46.7429H35.4584C35.7361 45.5949 36.8196 44.7523 38.8778 44.7523C41.5294 44.7523 42.4061 46.1057 42.4061 47.7593V53.3308C40.9033 54.9844 39.1609 55.7638 37.4131 55.7638C35.6653 55.7638 34.3422 54.9212 34.3422 53.3993C34.3422 51.8774 35.3223 51.0348 37.2062 51.0348H40.141V48.4702H37.1027C32.9102 48.4702 30.5743 50.4976 30.5743 53.6047C30.5743 56.5116 32.8448 58.7023 36.58 58.7023C38.6763 58.7023 40.5276 57.8913 41.8888 56.9118H42.4115V58.2968H46.0759V47.417C46.0759 43.3989 43.25 41.6084 38.8832 41.6084H38.8778ZM14 58.2915H17.6644V36H14V58.2915ZM29.3982 42.0139H24.9279L19.5865 48.802V50.9295L25.0695 58.2915H29.6105L23.1856 49.8499L29.4036 42.0139H29.3982ZM161.944 42.0139L158.938 48.4649C158.203 50.0184 157.506 51.5403 157.299 52.5514H156.776C156.569 51.5403 155.834 50.05 155.099 48.4965L152.094 42.0139H148.043L155.094 56.638L151.604 64H155.513L165.989 42.0139H161.938H161.944ZM147.237 42.0139H142.767L137.425 48.802V50.9295L142.908 58.2915H147.449L141.024 49.8499L147.242 42.0139H147.237ZM124.281 48.6334L121.836 48.3965C119.914 48.2279 118.902 47.7224 118.902 46.6428C118.902 45.3579 120.192 44.6154 122.043 44.6154C123.895 44.6154 125.185 45.4948 125.288 46.7429H128.817C128.675 43.5674 126.127 41.6084 122.076 41.6084C118.025 41.6084 115.232 43.7043 115.232 46.7745C115.232 49.3391 116.909 50.9979 120.715 51.3666L123.192 51.6035C124.695 51.7405 125.708 52.0406 125.708 53.4256C125.708 54.6737 124.766 55.5847 122.288 55.5847C120.007 55.5847 118.88 54.5842 118.488 53.2413H114.671C115.052 56.3115 117.72 58.6917 122.288 58.6917C126.584 58.6917 129.378 56.4958 129.378 53.2518C129.378 50.3818 127.423 48.9283 124.281 48.6229V48.6334ZM131.839 58.2915H135.503V36H131.839V58.2915ZM107.658 43.9045H107.135V42.0139H103.471V58.2915H107.135V49.7815C107.135 46.8746 108.524 45.1894 111.257 45.1894H113.576V41.6084H112.232C109.694 41.6084 108.616 42.5353 107.658 43.9045Z" fill="#069782"/>
</g>
<defs>
<clipPath id="clip0_3218_414">
<rect width="152" height="28" fill="white" transform="translate(14 36)"/>
</clipPath>
</defs>
</svg>
