<svg width="180" height="100" viewBox="0 0 180 100" fill="none" xmlns="http://www.w3.org/2000/svg">
<g clip-path="url(#clip0_3218_433)">
<path d="M21.8051 35.5H36.1202L32.9901 39.2788C32.9887 39.2813 32.9879 39.2842 32.9878 39.2871C32.9877 39.29 32.9883 39.2929 32.9896 39.2955C32.9908 39.2982 32.9927 39.3004 32.995 39.3021C32.9974 39.3038 33.0001 39.3048 33.0029 39.3052C34.6161 39.3549 36.211 39.3637 37.7873 39.3315C37.8143 39.3301 37.8407 39.3232 37.8648 39.3111C37.889 39.299 37.9103 39.282 37.9277 39.2612L40.2242 36.4974C40.3547 36.3392 40.5064 36.3158 40.6793 36.4271C43.4437 38.2286 44.1539 40.8606 44.1029 44.2967C44.049 47.6302 44.0462 50.87 44.0944 54.0161C44.0972 54.1947 44.0107 54.2841 43.8349 54.2841H32.148C31.9099 54.2841 31.8659 54.1889 32.0162 53.9985L42.1253 41.2956C42.3266 41.0437 42.2699 40.9177 41.9552 40.9177L16.3784 40.9221C16.3577 40.9224 16.3372 40.9175 16.3186 40.9081C16.3001 40.8986 16.2839 40.8848 16.2715 40.8676C16.2591 40.8505 16.2507 40.8306 16.2471 40.8096C16.2435 40.7885 16.2448 40.7668 16.2508 40.7464C17.0929 37.8932 18.9443 36.1444 21.8051 35.5Z" fill="#00CE58"/>
<path d="M63.8369 44.8776L57.8318 44.8907C57.7297 44.8907 57.6787 44.838 57.6787 44.7326V42.2016C57.6787 42.1284 57.7141 42.0918 57.785 42.0918H68.9446C69.0863 42.0918 69.1685 42.165 69.1912 42.3115C69.3018 43.0555 69.1856 43.6927 68.8425 44.2229C66.3787 48.0309 64.1062 51.5051 62.0251 54.6453C62.0097 54.6691 62.0009 54.6968 61.9995 54.7255C61.9982 54.7541 62.0044 54.7826 62.0175 54.8079C62.0306 54.8331 62.0501 54.8542 62.0739 54.869C62.0977 54.8837 62.125 54.8914 62.1527 54.8913H69.5059C69.6279 54.8913 69.6888 54.9543 69.6888 55.0803L69.6931 57.6903C69.6931 57.7635 69.6576 57.8001 69.5867 57.8001H57.045C56.9033 57.8001 56.8324 57.7284 56.8324 57.5848L56.8281 56.3062C56.8281 56.1509 56.8692 56.0089 56.9515 55.88L63.99 45.1676C64.1175 44.9713 64.0665 44.8746 63.8369 44.8776Z" fill="#009CFF"/>
<path d="M130.58 54.8913H137.504C137.551 54.8913 137.597 54.9108 137.63 54.9454C137.664 54.98 137.683 55.0269 137.683 55.0759L137.661 57.6156C137.661 57.6645 137.643 57.7115 137.609 57.7461C137.576 57.7807 137.53 57.8001 137.483 57.8001H126.753C126.705 57.8001 126.66 57.7807 126.627 57.7461C126.593 57.7115 126.574 57.6645 126.574 57.6156V42.2763C126.574 42.2274 126.593 42.1805 126.627 42.1458C126.66 42.1112 126.705 42.0918 126.753 42.0918L130.219 42.0962C130.266 42.0962 130.312 42.1156 130.345 42.1502C130.379 42.1849 130.398 42.2318 130.398 42.2807L130.402 54.7068C130.402 54.731 130.406 54.755 130.415 54.7774C130.424 54.7998 130.438 54.8202 130.454 54.8373C130.471 54.8544 130.49 54.868 130.512 54.8773C130.534 54.8866 130.557 54.8913 130.58 54.8913Z" fill="#00CE58"/>
<path d="M164.001 48.9727V55.3879C163.762 56.9609 162.786 57.7767 161.07 57.8353C157.94 57.9437 155.23 57.9276 152.939 57.7869C152.8 57.7782 152.73 57.702 152.73 57.5585V42.2016C152.73 42.1725 152.742 42.1446 152.762 42.124C152.782 42.1034 152.809 42.0918 152.837 42.0918H156.452C156.48 42.0918 156.507 42.1034 156.527 42.124C156.547 42.1446 156.558 42.1725 156.558 42.2016V46.2573C156.558 46.4096 156.632 46.4828 156.779 46.4769C159.311 46.4008 161.083 46.4608 162.095 46.6571C163.164 46.8621 163.799 47.634 164.001 48.9727ZM160.224 49.3418C160.224 49.2835 160.202 49.2276 160.162 49.1864C160.122 49.1452 160.068 49.1221 160.011 49.1221H156.771C156.714 49.1221 156.66 49.1452 156.62 49.1864C156.58 49.2276 156.558 49.2835 156.558 49.3418V54.8342C156.558 54.8925 156.58 54.9484 156.62 54.9896C156.66 55.0308 156.714 55.0539 156.771 55.0539H160.011C160.068 55.0539 160.122 55.0308 160.162 54.9896C160.202 54.9484 160.224 54.8925 160.224 54.8342V49.3418Z" fill="#00CE58"/>
<path d="M16 45.4356H34.568C34.5925 45.4349 34.6166 45.4415 34.6375 45.4546C34.6584 45.4677 34.6752 45.4867 34.686 45.5094C34.6967 45.5321 34.701 45.5575 34.6982 45.5825C34.6953 45.6076 34.6856 45.6314 34.6701 45.6509L28.0697 53.9994C27.9991 54.0887 27.9106 54.1608 27.8105 54.2102C27.7105 54.2596 27.6014 54.2851 27.4913 54.285H25.671C25.4414 54.2879 25.4003 54.1986 25.5477 54.017C27.3906 51.7585 29.1385 49.5747 30.7915 47.4656C30.7942 47.4632 30.7961 47.4599 30.7969 47.4563C30.7977 47.4526 30.7974 47.4488 30.796 47.4454C30.7945 47.442 30.7921 47.4391 30.789 47.4372C30.7859 47.4353 30.7823 47.4345 30.7787 47.4348C29.4263 47.3968 28.1604 47.3821 26.9809 47.3909C26.9451 47.3907 26.9093 47.3994 26.8761 47.4161C26.843 47.4328 26.8134 47.4572 26.7895 47.4876L17.7011 58.9865C17.6885 59.0032 17.6806 59.0233 17.6784 59.0444C17.6761 59.0655 17.6796 59.0868 17.6885 59.1059C17.6973 59.1251 17.7111 59.1413 17.7284 59.1528C17.7456 59.1643 17.7657 59.1706 17.7862 59.171L43.6522 59.1754C43.6739 59.175 43.6954 59.18 43.7149 59.1899C43.7344 59.1998 43.7513 59.2145 43.7643 59.2325C43.7772 59.2506 43.7857 59.2716 43.7891 59.2938C43.7926 59.3159 43.7908 59.3387 43.784 59.36C42.942 62.1545 41.1047 63.8682 38.2723 64.5009H21.8392C18.5418 63.7393 16.5954 61.5936 16 58.0638V45.4356Z" fill="#009CFF"/>
<path d="M75.4854 53.3918L75.4684 54.9605C75.4684 54.9874 75.4735 55.014 75.4834 55.0389C75.4933 55.0637 75.5077 55.0861 75.526 55.105C75.5442 55.1238 75.5658 55.1386 75.5895 55.1485C75.6132 55.1584 75.6385 55.1632 75.664 55.1626H82.341C82.4431 55.1626 82.4941 55.2168 82.4941 55.3252L82.4856 57.6715C82.4856 57.7081 82.4719 57.7432 82.4473 57.7694C82.4227 57.7957 82.3891 57.811 82.3538 57.8121C79.975 57.8737 77.5239 57.8766 75.0006 57.8209C72.9507 57.777 71.9229 56.6873 71.9172 54.5518C71.9116 52.5482 71.9257 50.7525 71.9598 49.1649C71.9938 47.5362 72.8245 46.6442 74.4519 46.489C76.6776 46.2781 78.719 46.3 80.5761 46.5549C81.8293 46.7277 82.5182 47.419 82.643 48.6288C82.7507 49.7156 82.7706 51.1641 82.7025 52.9744C82.6968 53.1355 82.6175 53.2161 82.4644 53.2161H75.6598C75.5464 53.2161 75.4882 53.2747 75.4854 53.3918ZM79.1514 49.0869C79.1515 49.0563 79.1459 49.026 79.1347 48.9977C79.1235 48.9694 79.107 48.9436 79.0862 48.9219C79.0654 48.9002 79.0406 48.8829 79.0133 48.871C78.986 48.8592 78.9568 48.853 78.9272 48.8528L75.712 48.8354C75.6824 48.8353 75.6531 48.8411 75.6257 48.8527C75.5983 48.8642 75.5733 48.8813 75.5523 48.9028C75.5312 48.9243 75.5145 48.9499 75.503 48.9781C75.4916 49.0063 75.4856 49.0365 75.4854 49.0671L75.4769 50.7543C75.4767 50.7849 75.4824 50.8152 75.4936 50.8435C75.5048 50.8719 75.5212 50.8976 75.5421 50.9194C75.5629 50.9411 75.5876 50.9584 75.6149 50.9702C75.6422 50.9821 75.6715 50.9883 75.7011 50.9884L78.9162 51.0058C78.9458 51.006 78.9752 51.0001 79.0026 50.9886C79.03 50.977 79.0549 50.96 79.076 50.9385C79.097 50.917 79.1138 50.8914 79.1252 50.8632C79.1367 50.835 79.1427 50.8047 79.1428 50.7742L79.1514 49.0869Z" fill="#009CFF"/>
<path d="M92.445 49.3413C92.445 49.1216 92.3387 49.0118 92.126 49.0118H89.4339C89.2667 49.0118 89.183 49.0967 89.183 49.2666L89.1788 57.6722C89.1788 57.7572 89.1391 57.7997 89.0597 57.7997H85.5341C85.4632 57.7997 85.4277 57.7631 85.4277 57.6898V46.8104C85.4277 46.623 85.5185 46.5248 85.6999 46.516C89.828 46.3491 92.7044 46.3871 94.329 46.6303C95.8515 46.8588 96.2938 48.4274 96.2811 49.8774C96.2641 52.4171 96.2626 54.9861 96.2768 57.5844C96.2768 57.7279 96.2074 57.7997 96.0684 57.7997H92.6576C92.6012 57.7997 92.5471 57.7765 92.5073 57.7353C92.4674 57.6941 92.445 57.6382 92.445 57.58V49.3413Z" fill="#009CFF"/>
<path d="M102.865 49.2316V57.6899C102.865 57.719 102.853 57.747 102.834 57.7676C102.814 57.7882 102.787 57.7998 102.758 57.7998H99.1434C99.0725 57.7998 99.0371 57.7631 99.0371 57.6899V46.7007C99.0371 46.6466 99.0576 46.5948 99.0941 46.5562C99.1307 46.5176 99.1805 46.4953 99.2327 46.4941C101.507 46.4326 103.89 46.4165 106.382 46.4458C108.181 46.4678 109.81 46.9555 109.848 49.2228C109.893 51.7508 109.902 54.5424 109.873 57.5976C109.871 57.7324 109.805 57.7998 109.678 57.7998H106.267C106.125 57.7998 106.054 57.7265 106.054 57.5801V49.3414C106.054 49.1217 105.948 49.0119 105.735 49.0119L103.077 49.0075C102.936 49.0075 102.865 49.0822 102.865 49.2316Z" fill="#009CFF"/>
<path d="M123.792 55.1863C123.792 55.5429 123.723 55.8958 123.59 56.2251C123.458 56.5543 123.264 56.8533 123.019 57.105C122.775 57.3567 122.485 57.5562 122.165 57.6921C121.846 57.828 121.504 57.8976 121.159 57.897L115.163 57.8862C114.818 57.8855 114.476 57.8147 114.157 57.6776C113.839 57.5406 113.549 57.3401 113.306 57.0875C113.062 56.8349 112.869 56.5352 112.737 56.2055C112.606 55.8758 112.538 55.5226 112.539 55.166L112.549 49.1111C112.55 48.7545 112.618 48.4015 112.751 48.0723C112.884 47.7431 113.078 47.4441 113.322 47.1924C113.567 46.9407 113.857 46.7412 114.176 46.6053C114.495 46.4694 114.837 46.3998 115.182 46.4004L121.179 46.4112C121.524 46.4118 121.865 46.4827 122.184 46.6197C122.503 46.7568 122.792 46.9573 123.036 47.2099C123.279 47.4625 123.473 47.7622 123.604 48.0919C123.736 48.4216 123.803 48.7748 123.802 49.1314L123.792 55.1863ZM119.982 49.3717C119.982 49.2773 119.946 49.1868 119.882 49.12C119.817 49.0533 119.729 49.0158 119.638 49.0158H116.652C116.561 49.0158 116.473 49.0533 116.409 49.12C116.344 49.1868 116.308 49.2773 116.308 49.3717V54.7675C116.308 54.8619 116.344 54.9524 116.409 55.0191C116.473 55.0859 116.561 55.1234 116.652 55.1234H119.638C119.729 55.1234 119.817 55.0859 119.882 55.0191C119.946 54.9524 119.982 54.8619 119.982 54.7675V49.3717Z" fill="#009CFF"/>
<path d="M146.418 50.5759L146.414 49.2884C146.414 49.0951 146.322 48.9999 146.138 49.0028L140.269 49.016C140.184 49.016 140.141 48.9706 140.141 48.8798L140.145 46.6784C140.145 46.6384 140.16 46.5999 140.187 46.5712C140.214 46.5425 140.251 46.5258 140.29 46.5246C143.185 46.4016 145.626 46.406 147.613 46.5378C149.468 46.6609 149.999 48.0493 149.986 49.7586C149.958 52.6849 149.952 55.292 149.969 57.5798C149.97 57.6121 149.964 57.6442 149.953 57.6743C149.941 57.7044 149.924 57.7318 149.903 57.7551C149.881 57.7783 149.855 57.7969 149.826 57.8098C149.798 57.8227 149.767 57.8297 149.735 57.8302C146.991 57.883 144.38 57.8771 141.902 57.8127C139.078 57.738 138.929 55.2774 139.167 53.0672C139.303 51.8193 139.95 51.1266 141.106 50.9889C142.507 50.8248 144.184 50.7794 146.138 50.8527C146.325 50.8615 146.418 50.7692 146.418 50.5759ZM146.421 53.266C146.421 53.2331 146.415 53.2005 146.402 53.1701C146.39 53.1398 146.372 53.1122 146.35 53.089C146.327 53.0657 146.3 53.0473 146.271 53.0348C146.242 53.0223 146.21 53.0158 146.178 53.0159L142.886 53.0219C142.855 53.0219 142.823 53.0285 142.794 53.0411C142.764 53.0537 142.738 53.0722 142.715 53.0955C142.693 53.1188 142.675 53.1465 142.663 53.1769C142.651 53.2073 142.644 53.2399 142.644 53.2728L142.647 54.9776C142.647 55.0105 142.654 55.043 142.666 55.0734C142.678 55.1038 142.696 55.1313 142.719 55.1546C142.741 55.1778 142.768 55.1962 142.797 55.2087C142.827 55.2213 142.858 55.2277 142.89 55.2276L146.182 55.2217C146.214 55.2216 146.245 55.2151 146.275 55.2024C146.304 55.1898 146.331 55.1713 146.353 55.148C146.376 55.1247 146.394 55.097 146.406 55.0666C146.418 55.0362 146.424 55.0036 146.424 54.9708L146.421 53.266Z" fill="#00CE58"/>
</g>
<defs>
<clipPath id="clip0_3218_433">
<rect width="148" height="29" fill="white" transform="translate(16 35.5)"/>
</clipPath>
</defs>
</svg>
